<mxfile host="app.diagrams.net" modified="2021-08-07T16:31:46.404Z" agent="5.0 (Windows NT 10.0; Win64; x64) AppleWebKit/537.36 (KHTML, like Gecko) Chrome/92.0.4515.107 Safari/537.36" etag="Wz4-a7L6bEPMc44Vekag" version="14.9.5" type="github">
  <diagram id="VGPbChae-F_0FtTXa2wn" name="Page-1">
    <mxGraphModel dx="1420" dy="1215" grid="1" gridSize="10" guides="1" tooltips="1" connect="1" arrows="1" fold="1" page="1" pageScale="1" pageWidth="850" pageHeight="1100" math="0" shadow="0">
      <root>
        <mxCell id="0" />
        <mxCell id="1" parent="0" />
        <mxCell id="_EGvWRqBnA80_kMGENiI-36" value="" style="whiteSpace=wrap;html=1;" vertex="1" parent="1">
          <mxGeometry x="360" y="300" width="460" height="235" as="geometry" />
        </mxCell>
        <mxCell id="_EGvWRqBnA80_kMGENiI-1" value="" style="fontColor=#0066CC;verticalAlign=top;verticalLabelPosition=bottom;labelPosition=center;align=center;html=1;outlineConnect=0;fillColor=#CCCCCC;strokeColor=#6881B3;gradientColor=none;gradientDirection=north;strokeWidth=2;shape=mxgraph.networks.pc;" vertex="1" parent="1">
          <mxGeometry x="370" y="410" width="100" height="70" as="geometry" />
        </mxCell>
        <mxCell id="_EGvWRqBnA80_kMGENiI-12" value="" style="edgeStyle=orthogonalEdgeStyle;rounded=0;orthogonalLoop=1;jettySize=auto;html=1;endArrow=none;endFill=0;" edge="1" parent="1" source="_EGvWRqBnA80_kMGENiI-2" target="_EGvWRqBnA80_kMGENiI-5">
          <mxGeometry relative="1" as="geometry" />
        </mxCell>
        <mxCell id="_EGvWRqBnA80_kMGENiI-2" value="" style="fontColor=#0066CC;verticalAlign=top;verticalLabelPosition=bottom;labelPosition=center;align=center;html=1;outlineConnect=0;fillColor=#CCCCCC;strokeColor=#6881B3;gradientColor=none;gradientDirection=north;strokeWidth=2;shape=mxgraph.networks.firewall;" vertex="1" parent="1">
          <mxGeometry x="260" y="197.5" width="80" height="75" as="geometry" />
        </mxCell>
        <mxCell id="_EGvWRqBnA80_kMGENiI-4" value="" style="fontColor=#0066CC;verticalAlign=top;verticalLabelPosition=bottom;labelPosition=center;align=center;html=1;outlineConnect=0;fillColor=#CCCCCC;strokeColor=#6881B3;gradientColor=none;gradientDirection=north;strokeWidth=2;shape=mxgraph.networks.server;" vertex="1" parent="1">
          <mxGeometry x="720" y="405" width="90" height="100" as="geometry" />
        </mxCell>
        <mxCell id="_EGvWRqBnA80_kMGENiI-13" value="" style="orthogonalLoop=1;jettySize=auto;html=1;rounded=0;endArrow=none;endFill=0;" edge="1" parent="1" source="_EGvWRqBnA80_kMGENiI-5" target="_EGvWRqBnA80_kMGENiI-6">
          <mxGeometry relative="1" as="geometry" />
        </mxCell>
        <mxCell id="_EGvWRqBnA80_kMGENiI-5" value="" style="fontColor=#0066CC;verticalAlign=top;verticalLabelPosition=bottom;labelPosition=center;align=center;html=1;outlineConnect=0;fillColor=#CCCCCC;strokeColor=#6881B3;gradientColor=none;gradientDirection=north;strokeWidth=2;shape=mxgraph.networks.router;" vertex="1" parent="1">
          <mxGeometry x="390" y="220" width="100" height="30" as="geometry" />
        </mxCell>
        <mxCell id="_EGvWRqBnA80_kMGENiI-17" value="" style="edgeStyle=orthogonalEdgeStyle;rounded=0;orthogonalLoop=1;jettySize=auto;html=1;endArrow=none;endFill=0;" edge="1" parent="1" source="_EGvWRqBnA80_kMGENiI-6" target="_EGvWRqBnA80_kMGENiI-16">
          <mxGeometry relative="1" as="geometry" />
        </mxCell>
        <mxCell id="_EGvWRqBnA80_kMGENiI-6" value="" style="fontColor=#0066CC;verticalAlign=top;verticalLabelPosition=bottom;labelPosition=center;align=center;html=1;outlineConnect=0;fillColor=#CCCCCC;strokeColor=#6881B3;gradientColor=none;gradientDirection=north;strokeWidth=2;shape=mxgraph.networks.switch;" vertex="1" parent="1">
          <mxGeometry x="550" y="220" width="100" height="30" as="geometry" />
        </mxCell>
        <mxCell id="_EGvWRqBnA80_kMGENiI-11" value="" style="edgeStyle=orthogonalEdgeStyle;rounded=0;orthogonalLoop=1;jettySize=auto;html=1;endArrow=none;endFill=0;" edge="1" parent="1" source="_EGvWRqBnA80_kMGENiI-7" target="_EGvWRqBnA80_kMGENiI-2">
          <mxGeometry relative="1" as="geometry" />
        </mxCell>
        <mxCell id="_EGvWRqBnA80_kMGENiI-7" value="" style="html=1;outlineConnect=0;fillColor=#CCCCCC;strokeColor=#6881B3;gradientColor=none;gradientDirection=north;strokeWidth=2;shape=mxgraph.networks.cloud;fontColor=#ffffff;" vertex="1" parent="1">
          <mxGeometry x="90" y="210" width="90" height="50" as="geometry" />
        </mxCell>
        <mxCell id="_EGvWRqBnA80_kMGENiI-10" value="" style="fontColor=#0066CC;verticalAlign=top;verticalLabelPosition=bottom;labelPosition=center;align=center;html=1;outlineConnect=0;fillColor=#CCCCCC;strokeColor=#6881B3;gradientColor=none;gradientDirection=north;strokeWidth=2;shape=mxgraph.networks.pc;" vertex="1" parent="1">
          <mxGeometry x="550" y="410" width="100" height="70" as="geometry" />
        </mxCell>
        <mxCell id="_EGvWRqBnA80_kMGENiI-18" value="" style="edgeStyle=orthogonalEdgeStyle;rounded=0;orthogonalLoop=1;jettySize=auto;html=1;endArrow=none;endFill=0;" edge="1" parent="1" source="_EGvWRqBnA80_kMGENiI-16" target="_EGvWRqBnA80_kMGENiI-10">
          <mxGeometry relative="1" as="geometry" />
        </mxCell>
        <mxCell id="_EGvWRqBnA80_kMGENiI-20" value="" style="edgeStyle=orthogonalEdgeStyle;rounded=0;orthogonalLoop=1;jettySize=auto;html=1;endArrow=none;endFill=0;" edge="1" parent="1" source="_EGvWRqBnA80_kMGENiI-16" target="_EGvWRqBnA80_kMGENiI-19">
          <mxGeometry relative="1" as="geometry" />
        </mxCell>
        <mxCell id="_EGvWRqBnA80_kMGENiI-25" value="" style="edgeStyle=orthogonalEdgeStyle;rounded=0;orthogonalLoop=1;jettySize=auto;html=1;endArrow=none;endFill=0;" edge="1" parent="1" source="_EGvWRqBnA80_kMGENiI-16" target="_EGvWRqBnA80_kMGENiI-24">
          <mxGeometry relative="1" as="geometry" />
        </mxCell>
        <mxCell id="_EGvWRqBnA80_kMGENiI-16" value="" style="shape=waypoint;size=6;pointerEvents=1;points=[];fillColor=#CCCCCC;resizable=0;rotatable=0;perimeter=centerPerimeter;snapToPoint=1;fontColor=#0066CC;verticalAlign=top;strokeColor=#6881B3;strokeWidth=2;gradientDirection=north;" vertex="1" parent="1">
          <mxGeometry x="580" y="300" width="40" height="40" as="geometry" />
        </mxCell>
        <mxCell id="_EGvWRqBnA80_kMGENiI-21" value="" style="edgeStyle=orthogonalEdgeStyle;rounded=0;orthogonalLoop=1;jettySize=auto;html=1;endArrow=none;endFill=0;" edge="1" parent="1" source="_EGvWRqBnA80_kMGENiI-19" target="_EGvWRqBnA80_kMGENiI-1">
          <mxGeometry relative="1" as="geometry" />
        </mxCell>
        <mxCell id="_EGvWRqBnA80_kMGENiI-19" value="" style="shape=waypoint;size=6;pointerEvents=1;points=[];fillColor=#CCCCCC;resizable=0;rotatable=0;perimeter=centerPerimeter;snapToPoint=1;fontColor=#0066CC;verticalAlign=top;strokeColor=#6881B3;strokeWidth=2;gradientDirection=north;" vertex="1" parent="1">
          <mxGeometry x="400" y="300" width="40" height="40" as="geometry" />
        </mxCell>
        <mxCell id="_EGvWRqBnA80_kMGENiI-26" value="" style="edgeStyle=orthogonalEdgeStyle;rounded=0;orthogonalLoop=1;jettySize=auto;html=1;endArrow=none;endFill=0;" edge="1" parent="1" source="_EGvWRqBnA80_kMGENiI-24" target="_EGvWRqBnA80_kMGENiI-4">
          <mxGeometry relative="1" as="geometry" />
        </mxCell>
        <mxCell id="_EGvWRqBnA80_kMGENiI-24" value="" style="shape=waypoint;size=6;pointerEvents=1;points=[];fillColor=#CCCCCC;resizable=0;rotatable=0;perimeter=centerPerimeter;snapToPoint=1;fontColor=#0066CC;verticalAlign=top;strokeColor=#6881B3;strokeWidth=2;gradientDirection=north;" vertex="1" parent="1">
          <mxGeometry x="745" y="300" width="40" height="40" as="geometry" />
        </mxCell>
        <mxCell id="_EGvWRqBnA80_kMGENiI-28" value="Internet" style="text;html=1;resizable=0;autosize=1;align=center;verticalAlign=middle;points=[];fillColor=none;strokeColor=none;rounded=0;" vertex="1" parent="1">
          <mxGeometry x="105" y="260" width="60" height="20" as="geometry" />
        </mxCell>
        <mxCell id="_EGvWRqBnA80_kMGENiI-30" value="Firewall01" style="text;html=1;resizable=0;autosize=1;align=center;verticalAlign=middle;points=[];fillColor=none;strokeColor=none;rounded=0;" vertex="1" parent="1">
          <mxGeometry x="265" y="272.5" width="70" height="20" as="geometry" />
        </mxCell>
        <mxCell id="_EGvWRqBnA80_kMGENiI-31" value="Router01" style="text;html=1;resizable=0;autosize=1;align=center;verticalAlign=middle;points=[];fillColor=none;strokeColor=none;rounded=0;" vertex="1" parent="1">
          <mxGeometry x="410" y="250" width="60" height="20" as="geometry" />
        </mxCell>
        <mxCell id="_EGvWRqBnA80_kMGENiI-32" value="Switch01" style="text;html=1;resizable=0;autosize=1;align=center;verticalAlign=middle;points=[];fillColor=none;strokeColor=none;rounded=0;" vertex="1" parent="1">
          <mxGeometry x="570" y="197.5" width="60" height="20" as="geometry" />
        </mxCell>
        <mxCell id="_EGvWRqBnA80_kMGENiI-33" value="PC1" style="text;html=1;resizable=0;autosize=1;align=center;verticalAlign=middle;points=[];fillColor=none;strokeColor=none;rounded=0;" vertex="1" parent="1">
          <mxGeometry x="410" y="480" width="40" height="20" as="geometry" />
        </mxCell>
        <mxCell id="_EGvWRqBnA80_kMGENiI-34" value="PC2" style="text;html=1;resizable=0;autosize=1;align=center;verticalAlign=middle;points=[];fillColor=none;strokeColor=none;rounded=0;" vertex="1" parent="1">
          <mxGeometry x="590" y="480" width="40" height="20" as="geometry" />
        </mxCell>
        <mxCell id="_EGvWRqBnA80_kMGENiI-35" value="Server" style="text;html=1;resizable=0;autosize=1;align=center;verticalAlign=middle;points=[];fillColor=none;strokeColor=none;rounded=0;" vertex="1" parent="1">
          <mxGeometry x="740" y="505" width="50" height="20" as="geometry" />
        </mxCell>
        <mxCell id="_EGvWRqBnA80_kMGENiI-37" value="IT Department" style="text;html=1;resizable=0;autosize=1;align=center;verticalAlign=middle;points=[];fillColor=none;strokeColor=none;rounded=0;" vertex="1" parent="1">
          <mxGeometry x="560" y="535" width="90" height="20" as="geometry" />
        </mxCell>
      </root>
    </mxGraphModel>
  </diagram>
</mxfile>
